<svg width="264px" height="280px" viewBox="0 0 264 280" version="1.1"
xmlns="http://www.w3.org/2000/svg"
xmlns:xlink="http://www.w3.org/1999/xlink">
<desc>Fluttermoji on pub.dev</desc>
<defs>
<circle id="path-1" cx="120" cy="120" r="120"></circle>
<path d="M12,160 C12,226.27417 65.72583,280 132,280 C198.27417,280 252,226.27417 252,160 L264,160 L264,-1.42108547e-14 L-3.19744231e-14,-1.42108547e-14 L-3.19744231e-14,160 L12,160 Z" id="path-3"></path>
<path d="M124,144.610951 L124,163 L128,163 L128,163 C167.764502,163 200,195.235498 200,235 L200,244 L0,244 L0,235 C-4.86974701e-15,195.235498 32.235498,163 72,163 L72,163 L76,163 L76,144.610951 C58.7626345,136.422372 46.3722246,119.687011 44.3051388,99.8812385 C38.4803105,99.0577866 34,94.0521096 34,88 L34,74 C34,68.0540074 38.3245733,63.1180731 44,62.1659169 L44,56 L44,56 C44,25.072054 69.072054,5.68137151e-15 100,0 L100,0 L100,0 C130.927946,-5.68137151e-15 156,25.072054 156,56 L156,62.1659169 C161.675427,63.1180731 166,68.0540074 166,74 L166,88 C166,94.0521096 161.51969,99.0577866 155.694861,99.8812385 C153.627775,119.687011 141.237365,136.422372 124,144.610951 Z" id="path-5"></path>
</defs>
<g id="Fluttermoji" stroke="none" stroke-width="1" fill="none" fill-rule="evenodd">
<g transform="translate(-825.000000, -1100.000000)" id="Fluttermoji/Circle">
<g transform="translate(825.000000, 1100.000000)"><g id="Mask"></g>
<g id="Fluttermoji" stroke-width="1" fill-rule="evenodd">
<g id="Body" transform="translate(32.000000, 36.000000)">

<mask id="mask-6" fill="white">
<use xlink:href="#path-5"></use>
</mask>
<use fill="#D0C6AC" xlink:href="#path-5"></use>  <g id="Skin/Brown" mask="url(#mask-6)" fill="#D08B5B">
    <g transform="translate(0.000000, 0.000000)" id="Color">
      <rect x="0" y="0" width="264" height="280" />
    </g>
  </g>
  <path d="M156,79 L156,102 C156,132.927946 130.927946,158 100,158 C69.072054,158 44,132.927946 44,102 L44,79 L44,94 C44,124.927946 69.072054,150 100,150 C130.927946,150 156,124.927946 156,94 L156,79 Z" id="Neck-Shadow" opacity="0.100000001" fill="#000000" mask="url(#mask-6)"></path></g><g id="Clothing/Graphic-Shirt" transform="translate(0.000000, 170.000000)">
						<defs>
							<path d="M165.624032,29.2681342 C202.760022,32.1373245 232,63.1798426 232,101.051724 L232,110 L32,110 L32,101.051724 C32,62.8348009 61.7752018,31.5722494 99.3929298,29.1967444 C99.1342224,30.2735458 99,31.3767131 99,32.5 C99,44.3741221 113.998461,54 132.5,54 C151.001539,54 166,44.3741221 166,32.5 C166,31.4015235 165.871641,30.3222877 165.624025,29.2681336 Z" id="react-path-35920"></path>
						</defs>
						<mask id="react-mask-35921" fill="white">
							<use xlink:href="#react-path-35920"></use>
						</mask>
						<use id="Clothes" fill="#E6E6E6" fill-rule="evenodd" xlink:href="#react-path-35920"></use>
						<g id="Color/Palette/Gray-01" mask="url(#react-mask-35921)" fill-rule="evenodd" fill="#5199E4">
							<rect id="ðŸ–Color" x="0" y="0" width="264" height="110"></rect>
						</g>
						<g id="Clothing/Graphic/Skull" mask="url(#react-mask-35921)" fill-rule="evenodd" fill="#FFFFFF">
							<g transform="translate(77.000000, 58.000000)" id="Fill-49">
								<path d="M65.2820354,19.9288113 C64.9841617,22.7059411 59.588846,24.2025715 57.6102394,22.3766824 C56.6984983,21.5350479 56.6825881,19.8029182 56.4815012,18.6751632 C56.1014249,16.5420247 55.8256486,14.4172496 55.7306295,12.2519776 C55.6727342,10.9274596 55.3253621,9.86749314 56.7745135,9.67029008 C57.65797,9.55055964 58.5675014,10.137767 59.2896464,10.6026028 C61.736719,12.1758255 65.6201265,16.7414286 65.2820354,19.9288113 M52.8813831,14.0756657 C53.1659984,16.901216 54.2014853,21.8145656 51.9457767,24.1810024 C49.9296045,26.2960933 45.7863308,24.19905 45.1631825,21.7084809 C44.3897714,18.6188195 47.4383369,14.9274245 49.307782,12.8387447 C49.881874,12.1969544 51.151594,10.4256483 52.1442119,11.018578 C52.526056,11.2461539 52.8367463,13.6301981 52.8813831,14.0756657 M54.3212536,25.1062722 C54.9678252,23.5832306 61.2342228,28.1246236 58.2744891,30.2850536 C57.7918806,30.6376421 54.1148633,31.7513112 53.4099544,31.2274906 C51.9250051,30.1235056 53.8408548,26.2630794 54.3212536,25.1062722 M73.3250687,17.5267194 C72.8817937,2.05112066 53.065234,-2.31331777 42.4756895,6.50447654 C38.426551,9.87585667 36.113389,14.0039155 36.0073212,19.2826191 C35.9171635,23.7544627 36.6256081,27.9718792 40.0409914,31.0465744 C41.5219631,32.379896 42.5004386,33.1955596 43.2862243,35.0170469 C44.1095756,36.9234899 44.4852324,39.3524331 46.0280771,40.8495037 C46.8788292,41.6752915 48.1176128,42.3417322 49.2940816,41.8091079 C51.455655,40.8301355 50.7644465,37.8320326 51.4194152,36.1606486 C53.4559171,41.1294616 58.6302582,42.7141291 59.5694002,36.4097935 C60.6000257,38.2286397 63.2945899,40.610483 65.268335,38.6195243 C66.0806376,37.8003393 66.2030575,36.4705391 66.3409457,35.3929652 C66.5857855,33.4807998 66.1601884,32.7294032 67.6955199,31.4180909 C71.7349355,27.9683578 73.4691441,22.7464381 73.3250687,17.5267194"></path>
							</g>
						</g>
					</g>
        <g id="Face" transform="translate(76.000000, 82.000000)" fill="#000000"><g id="Mouth/Serious" transform="translate(2.000000, 52.000000)" fill="#000000" fill-opacity="0.699999988">
							<rect id="Why-so-serious?" x="42" y="18" width="24" height="6" rx="3"></rect>
						</g>
                  <g id="Nose/Default" transform="translate(28.000000, 40.000000)" opacity="0.16">
							<path d="M16,8 C16,12.418278 21.372583,16 28,16 L28,16 C34.627417,16 40,12.418278 40,8" id="Nose"></path>
						</g>
    <g
        id='Eyes/Default-ðŸ˜€'
        transform='translate(0.000000, 8.000000)'
        fillOpacity='0.599999964'>
        <circle id='Eye' cx='30' cy='22' r='6' />
        <circle id='Eye' cx='82' cy='22' r='6' />
      </g>
    <g id='Eyebrow/Natural/Default-Natural' fillOpacity='0.599999964'>
        <path
          d='M26.0390934,6.21012364 C20.2775554,6.98346216 11.2929313,12.0052479 12.04426,17.8178111 C12.0689481,18.0080543 12.3567302,18.0673468 12.4809077,17.9084937 C14.9674041,14.7203351 34.1927973,10.0365481 41.1942673,11.0147151 C41.8350523,11.1044465 42.2580662,10.4430343 41.8210501,10.0302067 C38.0765663,6.49485426 31.2003792,5.51224825 26.0390934,6.21012364'
          id='Eyebrow'
          transform='translate(27.000000, 12.000000) rotate(5.000000) translate(-27.000000, -12.000000) '
        />
        <path
          d='M85.0390934,6.21012364 C79.2775554,6.98346216 70.2929313,12.0052479 71.04426,17.8178111 C71.0689481,18.0080543 71.3567302,18.0673468 71.4809077,17.9084937 C73.9674041,14.7203351 93.1927973,10.0365481 100.194267,11.0147151 C100.835052,11.1044465 101.258066,10.4430343 100.82105,10.0302067 C97.0765663,6.49485426 90.2003792,5.51224825 85.0390934,6.21012364'
          id='Eyebrow'
          transform='translate(86.000000, 12.000000) scale(-1, 1) rotate(5.000000) translate(-86.000000, -12.000000) '
        />
      </g>
          <g></g>
        </g><g id="Top" stroke-width="1" fill-rule="evenodd">
						<defs>
							<rect id="react-path-92544" x="0" y="0" width="264" height="280"></rect>
							<path d="M1,64 C1.34685629,65.488448 2.67275588,65.2226722 3,64 C2.53726005,62.445722 6.29594493,35.2480719 16,28 C19.618222,25.4833872 39.0082164,23.2319099 58.3126144,23.245568 C77.4086061,23.2590787 96.4208396,25.5105561 100,28 C109.704055,35.2480719 113.46274,62.445722 113,64 C113.327244,65.2226722 114.653144,65.488448 115,64 C115.719178,53.7019177 115,0.274362825 58,1 C1,1.72563718 0.280821545,53.7019177 1,64 Z" id="react-path-92545"></path>
							<filter x="-0.8%" y="-2.0%" width="101.5%" height="108.0%" filterUnits="objectBoundingBox" id="react-filter-92541">
								<feOffset dx="0" dy="2" in="SourceAlpha" result="shadowOffsetOuter1"></feOffset>
								<feColorMatrix values="0 0 0 0 0   0 0 0 0 0   0 0 0 0 0  0 0 0 0.16 0" type="matrix" in="shadowOffsetOuter1" result="shadowMatrixOuter1"></feColorMatrix>
								<feMerge>
									<feMergeNode in="shadowMatrixOuter1"></feMergeNode>
									<feMergeNode in="SourceGraphic"></feMergeNode>
								</feMerge>
							</filter>
						</defs>
						<mask id="react-mask-92542" fill="white">
							<use xlink:href="#react-path-92544"></use>
						</mask>
						<g id="Mask"></g>
						<g id="Top/Short-Hair/The-Caesar" mask="url(#react-mask-92542)">
							<g transform="translate(-1.000000, 0.000000)">
								<g id="Hair" stroke-width="1" fill-rule="evenodd" transform="translate(75.000000, 34.000000)">
									<mask id="react-mask-92543" fill="white">
										<use xlink:href="#react-path-92545"></use>
									</mask>
									<use id="Caesar" fill="#28354B" xlink:href="#react-path-92545"></use>
									<g id="Hairs/Colors" mask="url(#react-mask-92543)" fill="#724133">
										<g transform="translate(0.000000, 0.000000) " id="Color">
											<rect x="0" y="0" width="264" height="280"></rect>
										</g>
									</g>
								</g>
							</g>
						</g>
					</g>
</g></g></g></g></svg>
